<?xml version="1.0" encoding="UTF-8" standalone="no"?>
<svg
   xmlns:dc="http://purl.org/dc/elements/1.1/"
   xmlns:cc="http://creativecommons.org/ns#"
   xmlns:rdf="http://www.w3.org/1999/02/22-rdf-syntax-ns#"
   xmlns:svg="http://www.w3.org/2000/svg"
   xmlns="http://www.w3.org/2000/svg"
   viewBox="0 0 603.66669 249.53333"
   height="249.53333"
   width="603.66669"
   xml:space="preserve"
   id="svg2"
   version="1.1"><metadata
     id="metadata8"><rdf:RDF><cc:Work
         rdf:about=""><dc:format>image/svg+xml</dc:format><dc:type
           rdf:resource="http://purl.org/dc/dcmitype/StillImage" /></cc:Work></rdf:RDF></metadata><defs
     id="defs6" /><g
     transform="matrix(1.3333333,0,0,-1.3333333,0,249.53333)"
     id="g10"><g
       transform="scale(0.1)"
       id="g12"><path
         id="path14"
         style="fill:#d4382a;fill-opacity:1;fill-rule:nonzero;stroke:none"
         d="m 3967.72,1260.38 c 0,-9 -7.4,-16.44 -16.44,-16.44 h -33.27 c -8.96,0 -16.39,7.44 -16.39,16.44 v 33.31 c 0,9.08 7.43,16.39 16.39,16.39 h 33.27 c 9.04,0 16.44,-7.31 16.44,-16.39 v -33.31" /><path
         id="path16"
         style="fill:#d4382a;fill-opacity:1;fill-rule:nonzero;stroke:none"
         d="m 2815.23,1220.91 h -34.22 c -50.79,0 -119.46,-4.26 -152.98,-9.43 l -36.66,-5.74 c -6.61,-1 -9.48,-6.65 -6.22,-12.61 l 2.83,-5.4 10.91,-20.43 11,-20.53 c 1.57,-2.87 5.57,-4.87 8.88,-4.39 l 6.87,1.04 6.69,1.09 6.09,0.92 c 30.09,4.61 95.41,8.61 142.59,8.61 h 34.22 c 30.88,0 56.23,-25.23 56.23,-56.15 v -90.71 h -235.04 c -75.36,0 -139.15,-61.18 -142.41,-136.5 l -3,-72.09 c -1.61,-36.918 11.35,-71.891 36.78,-98.32 25.31,-26.399 59.58,-40.918 96.63,-40.918 h 173.03 47.61 c 51.36,0 93.15,41.828 93.15,93.179 v 345.359 c 0,67.8 -55.18,123.02 -122.98,123.02 m 29.83,-494.73 h -220.64 c -18.52,0 -35.66,7.261 -48.31,20.441 -12.53,13.09 -19.09,30.527 -18.31,49.098 l 3.09,72.179 c 1.69,39.227 36.27,72.364 75.53,72.364 h 235.04 V 752.531 c 0,-14.519 -11.87,-26.351 -26.4,-26.351" /><path
         id="path18"
         style="fill:#d4382a;fill-opacity:1;fill-rule:nonzero;stroke:none"
         d="m 4404.46,1220.91 h -34.1 c -50.92,0 -119.49,-4.26 -153.02,-9.43 l -36.66,-5.74 c -6.74,-1 -9.52,-6.65 -6.3,-12.61 l 24.74,-46.36 c 1.61,-2.87 5.57,-4.87 8.91,-4.39 l 6.83,1.04 12.74,2.01 c 30.18,4.61 95.54,8.61 142.76,8.61 h 34.1 c 31.05,0 56.18,-25.23 56.18,-56.15 v -90.71 h -234.91 c -75.36,0 -139.11,-61.18 -142.46,-136.5 l -3.12,-72.09 c -1.48,-36.918 11.6,-71.891 36.91,-98.32 25.36,-26.399 59.71,-40.918 96.67,-40.918 h 172.9 47.75 c 51.4,0 93.14,41.828 93.14,93.179 v 345.359 c 0,67.8 -55.14,123.02 -123.06,123.02 m 29.92,-494.73 h -220.65 c -18.57,0 -35.83,7.261 -48.31,20.441 -12.65,13.09 -19.13,30.527 -18.4,49.098 l 3.14,72.179 c 1.52,39.227 36.31,72.364 75.57,72.364 h 234.91 V 752.531 c 0,-14.519 -11.87,-26.351 -26.26,-26.351" /><path
         id="path20"
         style="fill:#d4382a;fill-opacity:1;fill-rule:nonzero;stroke:none"
         d="m 3786.02,665.172 -26.35,48.707 c -3.44,3.949 -9.74,7.34 -15.53,8.609 h -34.87 c -12.7,0 -30.84,21.832 -30.84,56.18 l -0.13,645.802 c 0,13.66 -11.17,24.7 -24.65,24.7 h -17.57 c -13.65,0 -24.61,-11.04 -24.61,-24.7 V 778.668 c 0,-30.789 8.91,-60.137 25.13,-82.707 18.35,-25.699 44.79,-40.313 72.67,-40.313 h 14.78 l 0.18,0.172 58.79,0.18 c 5.74,0.52 7.09,4.48 3,9.172" /><path
         id="path22"
         style="fill:#d4382a;fill-opacity:1;fill-rule:nonzero;stroke:none"
         d="m 3967.32,1173.59 c 0,13.61 -11.01,24.57 -24.57,24.57 h -17.57 c -13.57,0 -24.7,-10.96 -24.7,-24.57 l 0.13,-499.301 c 0,-13.519 11.04,-24.609 24.57,-24.609 h 17.74 c 13.52,0 24.48,11.09 24.48,24.609 l -0.08,499.301" /><path
         id="path24"
         style="fill:#d4382a;fill-opacity:1;fill-rule:nonzero;stroke:none"
         d="m 3482.19,1094.98 c -2.53,32.23 -19.4,58.02 -37.4,74.32 -29.75,28.61 -93.37,48.27 -180.47,50.31 -52.48,1.27 -96.1,-4.21 -129.28,-14.04 -15.13,-3.87 -84.32,-19.66 -84.32,-114.19 l 0.57,-667.15 c 0.48,-5.699 4.35,-7.089 9.22,-2.96 l 48.61,42.269 c 5.09,4.43 9.27,13.43 9.27,20.262 v 200.211 c 22.52,-15.184 48.83,-23.274 76.18,-23.274 h 0.13 148.63 c 77.37,0 140.29,66.84 140.29,149.16 v 100.188 l 0.17,3.348 -1.52,168.596 c 0,4.22 -0.08,8.56 -0.08,12.95 M 3343.33,727.578 h -148.76 c -19.87,0 -38.87,8.652 -53.4,24.313 -12.83,13.781 -20.7,31.648 -22.91,50.918 0,0 -0.44,277.301 -0.44,278.831 0,9.56 1.96,18.96 6.35,27.61 2.91,9.39 11.18,18.13 24.39,25.52 7.27,4.44 16.18,8.22 26.49,10.87 22.96,6.79 53.01,10.57 89.06,9.7 60.14,-1.39 111.27,-14.96 131.8,-34.66 13.44,-12.21 18.09,-26.52 19.13,-39.91 l 0.31,-0.7 1.39,-270.172 c 0,-45.398 -32.92,-82.32 -73.41,-82.32" /><path
         id="path26"
         style="fill:#d4382a;fill-opacity:1;fill-rule:nonzero;stroke:none"
         d="m 1128.05,546.441 c -11.61,0 -22.96,1.297 -33.48,4 0,0 -14.26,3.778 -21.4,6.477 L 900.059,626.23 c -26.657,11.051 -46.356,36.141 -49.008,66.93 -3.653,43.871 28.875,82.442 72.75,86.18 2.262,0.219 4.48,0.308 6.699,0.308 9.695,0 19.004,-1.828 27.656,-5.046 l 228.904,-82.75 c 5.79,-2.223 11.92,-3.391 18.05,-3.391 11.87,0 23.74,4.219 33.22,12.777 3.7,3.184 7.05,6.66 9.09,10.703 l 0.74,1.219 c 1.17,2.301 3.61,3.871 6.48,3.871 2.91,0 5.35,-1.652 6.61,-4.051 l 0.08,-0.171 c 2.96,-6.957 5.57,-14.868 6.92,-22.219 v 0.09 c 8.87,-37.84 -5.48,-79.84 -34.53,-105.719 -27.57,-24.781 -68.18,-38.52 -105.67,-38.52 M 977.984,1279.77 c -4.218,0 -7.742,3.48 -7.742,7.74 l 0.09,1.31 0.086,0.04 0.176,0.96 v 0.04 c 2.562,7.52 6.043,15.31 10.086,21.83 17.047,31.13 50.14,52.36 85.32,57.14 6.91,0.96 14.13,1.52 21.39,1.52 47.66,0 89.76,-22.48 115.28,-56.92 l -0.35,0.13 1.66,-2 c 4.83,-6.35 9.22,-13.09 13,-20.05 l 254.39,-499.158 c 36.09,-70.063 31.83,-157.461 -18.31,-224.954 -6.09,-8.308 -12.7,-15.957 -19.74,-23.089 l -3.96,-3.957 -0.35,-0.262 c -40.09,-38.789 -92.84,-58.93 -146.11,-58.93 -20.52,0 -41.13,3.012 -61.14,9.051 l -1.43,0.43 -2.52,0.828 c -4.44,1.441 -8.96,2.91 -13.27,4.652 l -2.52,1.219 -0.09,0.18 -2.04,1.082 c -3.57,2.738 -4.17,7.867 -1.48,11.437 l 1.48,1.43 c 1.13,1.133 2.39,1.742 4,2 l 1.22,0.261 c 32.96,7.438 63.09,25.661 85.4,54.45 h 0.09 l 1.22,1.429 c 35.09,47.403 38.83,108.411 14.74,158.032 l -263.74,526.779 c -8.57,16.87 -26.09,28.4 -46.351,28.4 -4.961,0 -10.004,-0.39 -14.399,-2.05 l -1.086,-0.34 z M 463.773,535.91 c -48.312,0 -87.363,39.141 -87.363,87.449 0,13.219 3,25.789 8.262,37.051 l 394.543,776.39 c 34.785,70.7 107.453,119.41 191.683,119.41 98.232,0 180.942,-66.45 205.722,-156.81 l 0.14,-0.78 0.39,-2.53 c 0,-4.65 -3.66,-8.34 -8.31,-8.34 l -2,0.21 c -1.61,0.26 -2.87,0.92 -4.13,2.05 l -0.91,0.78 c -26.48,21.83 -59.66,34.48 -96.67,34.48 -59.01,0 -110.15,-33.35 -135.72,-82.27 L 541.48,583.309 C 526.91,555.18 497.602,535.91 463.773,535.91 M 935.758,1871.52 C 418.938,1871.52 0,1452.58 0,935.762 0,418.941 418.938,0 935.758,0 c 516.872,0 935.762,418.941 935.762,935.762 0,516.818 -418.89,935.758 -935.762,935.758" /></g></g></svg>